<svg width="28" height="27" viewBox="0 0 28 27" fill="none" xmlns="http://www.w3.org/2000/svg">
<path d="M23 22.5L18.4438 17.9438M18.4438 17.9438C19.1751 17.2125 19.7552 16.3443 20.1509 15.3888C20.5467 14.4333 20.7504 13.4092 20.7504 12.375C20.7504 11.3408 20.5467 10.3167 20.1509 9.36122C19.7552 8.40573 19.1751 7.53755 18.4438 6.80625C17.7125 6.07496 16.8443 5.49486 15.8888 5.09908C14.9333 4.70331 13.9092 4.4996 12.875 4.4996C11.8408 4.4996 10.8167 4.70331 9.86122 5.09908C8.90573 5.49486 8.03755 6.07496 7.30626 6.80626C5.82933 8.28318 4.9996 10.2863 4.9996 12.375C4.9996 14.4637 5.82933 16.4668 7.30626 17.9438C8.78318 19.4207 10.7863 20.2504 12.875 20.2504C14.9637 20.2504 16.9668 19.4207 18.4438 17.9438Z" stroke="white" stroke-width="2" stroke-linecap="round" stroke-linejoin="round"/>
<path d="M10.8418 11.9318H16.1818V14.9318H10.1818V10.6081M16.9318 9.68182H15.4318L16.1818 11.1818H15.0568L14.3068 9.68182H13.5568L14.3068 11.1818H13.1818L12.4318 9.68182H11.6818L12.4318 11.1818H11.3068L10.5568 9.68182H10.1818C9.98291 9.68182 9.79215 9.76084 9.65149 9.90149C9.51084 10.0421 9.43182 10.2329 9.43182 10.4318V14.9318C9.43182 15.1307 9.51084 15.3215 9.65149 15.4622C9.79215 15.6028 9.98291 15.6818 10.1818 15.6818H16.1818C16.3807 15.6818 16.5715 15.6028 16.7122 15.4622C16.8528 15.3215 16.9318 15.1307 16.9318 14.9318V9.68182Z" fill="white"/>
</svg>
